<svg width="36" height="36" viewBox="0 0 36 36" fill="none" xmlns="http://www.w3.org/2000/svg">
<g clip-path="url(#clip0_672_114)">
<path d="M33 14H3C2.73478 14 2.48043 14.1054 2.29289 14.2929C2.10536 14.4804 2 14.7348 2 15C2 15.2652 2.10536 15.5196 2.29289 15.7071C2.48043 15.8946 2.73478 16 3 16H33C33.2652 16 33.5196 15.8946 33.7071 15.7071C33.8946 15.5196 34 15.2652 34 15C34 14.7348 33.8946 14.4804 33.7071 14.2929C33.5196 14.1054 33.2652 14 33 14Z" fill="#F0F0F5"/>
<path d="M28 17H8C7.73478 17 7.48043 17.1054 7.29289 17.2929C7.10536 17.4804 7 17.7348 7 18C7 18.2652 7.10536 18.5196 7.29289 18.7071C7.48043 18.8946 7.73478 19 8 19H28C28.2652 19 28.5196 18.8946 28.7071 18.7071C28.8946 18.5196 29 18.2652 29 18C29 17.7348 28.8946 17.4804 28.7071 17.2929C28.5196 17.1054 28.2652 17 28 17Z" fill="#F0F0F5"/>
<path d="M23 20H13C12.7348 20 12.4804 20.1054 12.2929 20.2929C12.1054 20.4804 12 20.7348 12 21C12 21.2652 12.1054 21.5196 12.2929 21.7071C12.4804 21.8946 12.7348 22 13 22H23C23.2652 22 23.5196 21.8946 23.7071 21.7071C23.8946 21.5196 24 21.2652 24 21C24 20.7348 23.8946 20.4804 23.7071 20.2929C23.5196 20.1054 23.2652 20 23 20Z" fill="#F0F0F5"/>
</g>
<defs>
<clipPath id="clip0_672_114">
<rect width="36" height="36" fill="white"/>
</clipPath>
</defs>
</svg>
