<svg width="229" height="210" viewBox="0 0 229 210" fill="none" xmlns="http://www.w3.org/2000/svg">
<path d="M133.583 160.256C123.117 155.685 114.12 148.706 107.468 140H28.6251V35H200.375V54.81C208.106 59.7822 214.609 66.1922 219.458 73.6225V35C219.443 30.363 217.428 25.9198 213.852 22.6409C210.277 19.362 205.432 17.5138 200.375 17.5H28.6251C23.5685 17.5138 18.7234 19.362 15.1478 22.6409C11.5723 25.9198 9.55685 30.363 9.54175 35V140C9.55685 144.637 11.5723 149.08 15.1478 152.359C18.7234 155.638 23.5685 157.486 28.6251 157.5H95.4167V175H76.3334V192.5H152.667V175H133.583V160.256Z" fill="#002D4E"/>
<path d="M162.208 52.5C150.885 52.5 139.817 55.5791 130.402 61.3478C120.987 67.1166 113.649 75.316 109.316 84.9091C104.983 94.5022 103.849 105.058 106.058 115.242C108.267 125.426 113.72 134.781 121.726 142.123C129.733 149.465 139.934 154.466 151.039 156.491C162.145 158.517 173.656 157.477 184.117 153.504C194.578 149.53 203.519 142.801 209.81 134.167C216.101 125.534 219.458 115.384 219.458 105C219.461 98.105 217.982 91.277 215.105 84.9064C212.229 78.5358 208.012 72.7473 202.696 67.8718C197.379 62.9962 191.067 59.1292 184.12 56.4916C177.173 53.8541 169.727 52.4977 162.208 52.5ZM162.208 140C154.66 140 147.28 137.947 141.004 134.101C134.728 130.256 129.836 124.789 126.947 118.394C124.058 111.999 123.302 104.961 124.775 98.1718C126.248 91.3825 129.883 85.1461 135.22 80.2513C140.558 75.3564 147.359 72.023 154.762 70.6725C162.166 69.322 169.84 70.0151 176.814 72.6642C183.788 75.3133 189.749 79.7993 193.943 85.555C198.136 91.3108 200.375 98.0777 200.375 105C200.362 114.279 196.337 123.175 189.182 129.736C182.027 136.297 172.327 139.988 162.208 140Z" fill="#002D4E"/>
<path d="M162.208 113.75C167.478 113.75 171.75 109.832 171.75 105C171.75 100.168 167.478 96.25 162.208 96.25C156.939 96.25 152.667 100.168 152.667 105C152.667 109.832 156.939 113.75 162.208 113.75Z" fill="#002D4E"/>
</svg>
