<svg width="143" height="154" viewBox="0 0 143 154" fill="none" xmlns="http://www.w3.org/2000/svg">
<path d="M83.4167 117.553C76.918 114.171 71.3368 109.044 67.21 102.667H17.875V25.6666H125.125V40.1683C129.949 43.8195 134.008 48.5192 137.042 53.9641V25.6666C137.042 22.263 135.786 18.9988 133.551 16.592C131.317 14.1853 128.286 12.8333 125.125 12.8333H17.875C14.7145 12.8333 11.6835 14.1853 9.44868 16.592C7.21388 18.9988 5.95837 22.263 5.95837 25.6666V102.667C5.95837 106.07 7.21388 109.334 9.44868 111.741C11.6835 114.148 14.7145 115.5 17.875 115.5H59.5834V128.333H47.6667V141.167H95.3334V128.333H83.4167V117.553Z" fill="#002D4E"/>
<path d="M101.292 38.5C94.221 38.5 87.3091 40.758 81.43 44.9884C75.5509 49.2189 70.9688 55.2317 68.2629 62.2667C65.5571 69.3016 64.8491 77.0427 66.2286 84.511C67.608 91.9792 71.0128 98.8393 76.0126 104.224C81.0123 109.608 87.3823 113.275 94.3172 114.76C101.252 116.246 108.44 115.483 114.973 112.569C121.505 109.655 127.088 104.721 131.017 98.3895C134.945 92.0582 137.042 84.6146 137.042 77C137.042 66.7892 133.275 56.9965 126.571 49.7764C119.866 42.5562 110.773 38.5 101.292 38.5ZM101.292 86.625C99.524 86.625 97.796 86.0605 96.3262 85.0029C94.8565 83.9453 93.7109 82.4421 93.0345 80.6833C92.358 78.9246 92.181 76.9893 92.5259 75.1223C92.8707 73.2552 93.7219 71.5402 94.9719 70.1941C96.2218 68.848 97.8143 67.9313 99.548 67.5599C101.282 67.1886 103.079 67.3792 104.712 68.1077C106.345 68.8362 107.741 70.0698 108.723 71.6526C109.705 73.2355 110.229 75.0964 110.229 77C110.229 79.5527 109.288 82.0009 107.611 83.8059C105.935 85.6109 103.662 86.625 101.292 86.625Z" fill="#002D4E"/>
</svg>
