<svg width="91" height="83" viewBox="0 0 91 83" fill="none" xmlns="http://www.w3.org/2000/svg">
<path d="M80.7247 48.0709L68.2501 41.5001L80.7247 34.9293C82.5447 33.9609 83.1513 31.8513 82.1276 30.1913L74.5443 18.2255C74.0368 17.4321 73.2071 16.8529 72.2349 16.6134C71.2626 16.3739 70.2261 16.4934 69.3497 16.9459L56.8751 23.5168V10.3751C56.8751 8.473 55.1688 6.91675 53.0834 6.91675H37.9167C35.8313 6.91675 34.1251 8.473 34.1251 10.3751V23.5168L21.6505 16.9459C20.7741 16.4934 19.7376 16.3739 18.7653 16.6134C17.7931 16.8529 16.9634 17.4321 16.4559 18.2255L8.87258 30.1913C7.81091 31.8513 8.4555 33.9609 10.2755 34.9293L22.7501 41.5001L10.2755 48.0709C8.4555 49.0392 7.84883 51.1488 8.87258 52.8088L16.4559 64.7747C17.5176 66.4347 19.8305 66.988 21.6505 66.0543L34.1251 59.4834V72.6251C34.1251 74.5272 35.8313 76.0834 37.9167 76.0834H53.0834C55.1688 76.0834 56.8751 74.5272 56.8751 72.6251V59.4834L69.3497 66.0543C71.1697 67.0226 73.4826 66.4347 74.5443 64.7747L82.1276 52.8088C83.1892 51.1488 82.5447 49.0392 80.7247 48.0709ZM69.8805 58.3422L52.1355 49.0047C50.8843 48.313 49.2918 49.143 49.2918 50.4918V69.1668H41.7084V50.4918C41.7084 49.1776 40.1159 48.313 38.8647 49.0047L21.1197 58.3422L17.328 52.3593L35.073 43.0217C36.3242 42.3647 36.3242 40.7047 35.073 40.013L17.328 30.6755L21.1197 24.6926L38.8647 34.0301C40.1159 34.6872 41.7084 33.8572 41.7084 32.5084V13.8334H49.2918V32.5084C49.2918 33.8226 50.8843 34.6872 52.1355 33.9955L69.8805 24.658L73.6722 30.6409L55.9272 39.9784C54.6759 40.6355 54.6759 42.2955 55.9272 42.9872L73.6722 52.3247L69.8805 58.3422Z" fill="#F0F0F5"/>
</svg>
