<svg width="50" height="50" viewBox="0 0 50 50" fill="none" xmlns="http://www.w3.org/2000/svg">
<g clip-path="url(#clip0_473_1022)">
<path d="M25.2156 0.00016149C26.0344 0.00016149 26.8406 0.0532865 27.5906 0.178286C28.3293 0.275076 29.0581 0.436103 29.7688 0.659536C30.4813 0.875161 31.1781 1.14391 31.875 1.48141C32.5531 1.80329 33.25 2.19704 33.9469 2.62516C35.125 3.37516 36.2844 3.98141 37.4656 4.46579C39.7911 5.39651 42.2501 5.95035 44.75 6.10641C46.0188 6.19704 47.3219 6.25016 48.6781 6.25016V18.7502C48.6781 21.1252 48.375 23.3752 47.7688 25.5189C47.1864 27.6321 46.3589 29.6699 45.3031 31.5908C44.2518 33.509 43.0079 35.3152 41.5906 36.9814C40.1516 38.6855 38.5936 40.2853 36.9281 41.7689C35.2407 43.2568 33.4634 44.6397 31.6063 45.9095C29.75 47.197 27.875 48.3939 26 49.4814L25.25 49.9283L24.5 49.4814C22.5725 48.3655 20.6898 47.1739 18.8563 45.9095C16.9887 44.654 15.2105 43.2705 13.5344 41.7689C11.87 40.2853 10.3129 38.6854 8.87501 36.9814C7.46155 35.3081 6.21207 33.503 5.14376 31.5908C4.10605 29.6613 3.27939 27.6256 2.67813 25.5189C2.06804 23.315 1.76725 21.0369 1.78438 18.7502V6.25016C3.14376 6.25016 4.44688 6.19704 5.71563 6.10641C6.96457 6.01966 8.20543 5.84105 9.42813 5.57204C10.625 5.30329 11.8219 4.94704 13 4.46579C14.2225 3.97239 15.3946 3.36228 16.5 2.64391C17.875 1.75016 19.2688 1.09079 20.6438 0.656411C22.1246 0.202448 23.6669 -0.018937 25.2156 0.00016149ZM45.5344 9.32204C43.1688 9.20726 40.8253 8.81178 38.5531 8.14391C36.293 7.46971 34.1402 6.47748 32.1594 5.19704C31.132 4.52265 30.0162 3.99367 28.8438 3.62516C27.6726 3.27121 26.4547 3.09632 25.2313 3.10641C23.9987 3.09844 22.7719 3.27326 21.5906 3.62516C20.4165 3.9817 19.3021 4.51149 18.2844 5.19704C16.3002 6.48446 14.1418 7.48104 11.875 8.15641C9.65938 8.80016 7.34063 9.19391 4.90938 9.33766V18.7658C4.90938 20.8377 5.17813 22.8189 5.71563 24.7283C6.26322 26.6211 7.01777 28.4477 7.96563 30.1752C8.92485 31.9206 10.0554 33.5662 11.3406 35.0877C12.6438 36.622 14.0344 38.0502 15.5344 39.4064C17.0344 40.7658 18.6063 42.0158 20.25 43.1752C21.9094 44.3377 23.5719 45.3908 25.2313 46.3533C26.9304 45.3641 28.587 44.3038 30.1969 43.1752C31.8515 42.0194 33.4317 40.7607 34.9281 39.4064C36.4281 38.0502 37.8219 36.622 39.125 35.0877C40.4104 33.5663 41.5409 31.9207 42.5 30.1752C43.4437 28.4499 44.187 26.6224 44.7156 24.7283C45.2695 22.7896 45.5451 20.782 45.5344 18.7658V9.32204Z" fill="#002D4E"/>
<path fill-rule="evenodd" clip-rule="evenodd" d="M36.8656 14.7159L35.4906 13.5347L34.2218 13.644L20.5968 29.7315L15.9562 23.1065L14.7062 22.894L13.2593 23.9284L13.0437 25.1784L19.0093 33.6972L19.6875 34.0722L21.1156 34.1597L21.8468 33.8409L36.9562 15.9815L36.8656 14.7159Z" fill="#002D4E"/>
</g>
<defs>
<clipPath id="clip0_473_1022">
<rect width="50" height="50" fill="white"/>
</clipPath>
</defs>
</svg>
