<svg width="90" height="83" viewBox="0 0 90 83" fill="none" xmlns="http://www.w3.org/2000/svg">
<path d="M33 38.7334C29.0218 38.7334 25.2064 37.276 22.3934 34.6818C19.5804 32.0875 18 28.5689 18 24.9001V13.8334C18 13.0997 18.3161 12.396 18.8787 11.8771C19.4413 11.3583 20.2044 11.0668 21 11.0668H24C24.7956 11.0668 25.5587 10.7753 26.1213 10.2564C26.6839 9.73759 27 9.03388 27 8.30011C27 7.56635 26.6839 6.86264 26.1213 6.34379C25.5587 5.82493 24.7956 5.53345 24 5.53345H21C18.6131 5.53345 16.3239 6.40791 14.636 7.96446C12.9482 9.52101 12 11.6322 12 13.8334V24.9001C12.0039 28.0257 12.8303 31.1038 14.4084 33.8699C15.9865 36.636 18.269 39.0075 21.06 40.7808C23.7415 42.961 25.9161 45.6197 27.4527 48.5964C28.9892 51.5731 29.8557 54.806 30 58.1001C30 63.2365 32.2125 68.1625 36.1508 71.7944C40.089 75.4264 45.4305 77.4668 51 77.4668C56.5695 77.4668 61.911 75.4264 65.8492 71.7944C69.7875 68.1625 72 63.2365 72 58.1001V54.9461C74.828 54.2727 77.2926 52.6713 78.9318 50.442C80.571 48.2126 81.2724 45.5085 80.9044 42.8364C80.5363 40.1643 79.1242 37.7078 76.9327 35.9272C74.7412 34.1466 71.9207 33.1642 69 33.1642C66.0793 33.1642 63.2588 34.1466 61.0673 35.9272C58.8758 37.7078 57.4637 40.1643 57.0956 42.8364C56.7276 45.5085 57.429 48.2126 59.0682 50.442C60.7074 52.6713 63.172 54.2727 66 54.9461V58.1001C66 61.7689 64.4196 65.2875 61.6066 67.8818C58.7936 70.476 54.9782 71.9334 51 71.9334C47.0218 71.9334 43.2064 70.476 40.3934 67.8818C37.5804 65.2875 36 61.7689 36 58.1001C36.1519 54.802 37.0278 51.5665 38.5747 48.5896C40.1217 45.6126 42.3076 42.9561 45 40.7808C47.7799 39.0014 50.0508 36.6271 51.6182 33.8614C53.1856 31.0957 54.0029 28.0208 54 24.9001V13.8334C54 11.6322 53.0518 9.52101 51.364 7.96446C49.6761 6.40791 47.3869 5.53345 45 5.53345H42C41.2044 5.53345 40.4413 5.82493 39.8787 6.34379C39.3161 6.86264 39 7.56635 39 8.30011C39 9.03388 39.3161 9.73759 39.8787 10.2564C40.4413 10.7753 41.2044 11.0668 42 11.0668H45C45.7957 11.0668 46.5587 11.3583 47.1213 11.8771C47.6839 12.396 48 13.0997 48 13.8334V24.9001C48 26.7167 47.612 28.5156 46.8582 30.1939C46.1044 31.8722 44.9995 33.3972 43.6066 34.6818C42.2137 35.9663 40.5601 36.9853 38.7402 37.6805C36.9204 38.3756 34.9698 38.7334 33 38.7334ZM69 49.8001C67.4087 49.8001 65.8826 49.2171 64.7574 48.1794C63.6321 47.1417 63 45.7343 63 44.2668C63 42.7992 63.6321 41.3918 64.7574 40.3541C65.8826 39.3164 67.4087 38.7334 69 38.7334C70.5913 38.7334 72.1174 39.3164 73.2426 40.3541C74.3679 41.3918 75 42.7992 75 44.2668C75 45.7343 74.3679 47.1417 73.2426 48.1794C72.1174 49.2171 70.5913 49.8001 69 49.8001Z" fill="#F0F0F5"/>
</svg>
