<svg width="91" height="83" viewBox="0 0 91 83" fill="none" xmlns="http://www.w3.org/2000/svg">
<path fill-rule="evenodd" clip-rule="evenodd" d="M11.375 15.5625C11.375 14.1867 11.9742 12.8672 13.0408 11.8944C14.1074 10.9215 15.5541 10.375 17.0625 10.375H73.9375C75.4459 10.375 76.8926 10.9215 77.9592 11.8944C79.0258 12.8672 79.625 14.1867 79.625 15.5625V67.4375C79.625 68.8133 79.0258 70.1328 77.9592 71.1056C76.8926 72.0785 75.4459 72.625 73.9375 72.625H17.0625C15.5541 72.625 14.1074 72.0785 13.0408 71.1056C11.9742 70.1328 11.375 68.8133 11.375 67.4375V15.5625ZM23.1102 35.0606C23.1102 27.6355 28.3806 20.75 35.6038 20.75C40.6144 20.75 44.3322 23.84 46.628 28.22C48.922 23.84 52.6397 20.75 57.6523 20.75C64.8735 20.75 70.1458 27.6373 70.1458 35.0606C70.1458 50.9516 46.628 62.25 46.628 62.25C46.628 62.25 30.959 55.1777 25.1994 43.5664H32.3543L35.5279 38.5051L39.2362 50.1458L47.9191 40.134H56.8011C57.0578 40.136 57.3125 40.0919 57.5505 40.004C57.7885 39.9162 58.0052 39.7864 58.1882 39.6221C58.3712 39.4578 58.5168 39.2622 58.6168 39.0465C58.7167 38.8308 58.7691 38.5992 58.7708 38.365C58.7689 38.131 58.7163 37.8996 58.6162 37.6841C58.5161 37.4686 58.3705 37.2732 58.1875 37.1091C58.0046 36.9449 57.788 36.8153 57.5501 36.7276C57.3122 36.6399 57.0577 36.5958 56.8011 36.5978H45.9929L40.8912 42.4822L36.7204 29.3941L30.0509 40.0337H23.8193C23.3643 38.4428 23.1083 36.7828 23.1083 35.0589M23.7984 40.0319H18.9583V43.5646H25.1861L23.7984 40.0319Z" fill="#F0F0F5"/>
</svg>
