<svg width="91" height="83" viewBox="0 0 91 83" fill="none" xmlns="http://www.w3.org/2000/svg">
<g clip-path="url(#clip0_683_255)">
<path d="M43.8294 18.483H46.6148V16.3704H48.9325V13.8311H46.6148V11.7107H43.8294V13.8311H41.5117V16.3704H43.8294V18.483Z" fill="#F0F0F5"/>
<path d="M78.3907 0.872803H12.1683C5.67888 0.872803 0.400879 5.6881 0.400879 11.6083V71.9999C0.400879 77.9202 5.6803 82.7367 12.1683 82.7367H78.3907C84.8802 82.7367 90.1582 77.9214 90.1582 71.9999V11.6083C90.1582 5.6894 84.8802 0.872803 78.3907 0.872803ZM45.2411 10.2946C49.2138 10.2946 55.7203 11.8184 59.349 15.4341L54.4648 23.9831C53.3777 22.6956 51.9807 21.6533 50.3816 20.9366C48.7825 20.22 47.0242 19.8482 45.2425 19.85C43.4813 19.8481 41.7427 20.2116 40.1582 20.9131C38.5738 21.6146 37.185 22.6356 36.097 23.8988L31.1176 15.6248C35.3108 11.8016 41.0964 10.2946 45.2411 10.2946ZM54.1918 30.142C54.1899 32.3091 53.2445 34.3868 51.5633 35.9183C49.8821 37.4497 47.6029 38.3094 45.2269 38.3084C42.8523 38.3084 40.5749 37.448 38.8958 35.9165C37.2167 34.385 36.2734 32.3078 36.2734 30.142C36.2734 27.9761 37.2167 25.8989 38.8958 24.3674C40.5749 22.8359 42.8523 21.9756 45.2269 21.9756C47.6029 21.9745 49.8821 22.8342 51.5633 24.3657C53.2445 25.8971 54.1899 27.9748 54.1918 30.142ZM27.7905 47.7107C28.6038 45.1183 32.1968 40.5209 38.4119 40.4936L52.3804 40.5053C58.456 40.6415 61.9766 45.1494 62.78 47.712L67.92 63.2253H60.3884L57.1081 52.9864H54.8132L58.0735 63.2253H32.4798L35.7544 52.9864H33.4609L30.1877 63.2253H22.5494L27.7905 47.7107ZM78.732 72.3034H11.7346V66.4895H78.7305L78.732 72.3034Z" fill="#F0F0F5"/>
</g>
<defs>
<clipPath id="clip0_683_255">
<rect width="91" height="83" fill="white"/>
</clipPath>
</defs>
</svg>
