<svg width="131" height="132" viewBox="0 0 131 132" fill="none" xmlns="http://www.w3.org/2000/svg">
<path d="M102.344 20.625H101.648V28.875H102.344C103.429 28.875 104.471 29.3096 105.238 30.0832C106.006 30.8568 106.438 31.906 106.438 33V115.5C106.438 116.594 106.006 117.643 105.238 118.417C104.471 119.19 103.429 119.625 102.344 119.625H28.6562C27.5705 119.625 26.5293 119.19 25.7615 118.417C24.9938 117.643 24.5625 116.594 24.5625 115.5V33C24.5625 31.906 24.9938 30.8568 25.7615 30.0832C26.5293 29.3096 27.5705 28.875 28.6562 28.875H29.3522V20.625H28.6562C25.3991 20.625 22.2753 21.9288 19.9721 24.2496C17.6689 26.5703 16.375 29.7179 16.375 33V115.5C16.375 118.782 17.6689 121.93 19.9721 124.25C22.2753 126.571 25.3991 127.875 28.6562 127.875H102.344C105.601 127.875 108.725 126.571 111.028 124.25C113.331 121.93 114.625 118.782 114.625 115.5V33C114.625 29.7179 113.331 26.5703 111.028 24.2496C108.725 21.9288 105.601 20.625 102.344 20.625Z" fill="#002D4E"/>
<path d="M94.1562 12.375H81.875V0H49.125V12.375H36.8438V37.125H94.1562V12.375ZM85.9688 28.875H45.0312V20.625H57.3125V8.25H73.6875V20.625H85.9688V28.875Z" fill="#002D4E"/>
<path d="M40.9375 53.625H90.0625V61.875H40.9375V53.625ZM40.9375 74.25H90.0625V82.5H40.9375V74.25ZM40.9375 94.875H90.0625V103.125H40.9375V94.875Z" fill="#002D4E"/>
</svg>
