<svg width="132" height="135" viewBox="0 0 132 135" fill="none" xmlns="http://www.w3.org/2000/svg">
<path d="M125.929 95.034C126.465 91.7844 126.465 88.4656 125.929 85.216L131.251 81.782C131.87 81.3902 132.138 80.5836 131.931 79.823C130.549 74.8449 128.177 70.3277 125.083 66.5941C124.609 66.018 123.846 65.8797 123.227 66.2715L117.905 69.7055C115.657 67.5621 113.078 65.9027 110.294 64.7965V57.9285C110.294 57.1449 109.798 56.4535 109.118 56.2922C104.518 55.1398 99.8355 55.1859 95.4626 56.2922C94.7819 56.4535 94.2868 57.1449 94.2868 57.9285V64.7965C91.5022 65.9027 88.9238 67.5621 86.6754 69.7055L81.3536 66.2715C80.7554 65.8797 79.9716 66.018 79.4971 66.5941C76.4031 70.3277 74.0309 74.8449 72.6489 79.823C72.4426 80.5836 72.7314 81.3902 73.3296 81.782L78.6514 85.216C78.1151 88.4656 78.1151 91.7844 78.6514 95.034L73.3296 98.468C72.7108 98.8598 72.4426 99.6664 72.6489 100.427C74.0309 105.405 76.4031 109.899 79.4971 113.656C79.9716 114.232 80.7348 114.37 81.3536 113.979L86.6754 110.545C88.9238 112.688 91.5022 114.347 94.2868 115.454V122.321C94.2868 123.105 94.7819 123.796 95.4626 123.958C100.062 125.11 104.745 125.064 109.118 123.958C109.798 123.796 110.294 123.105 110.294 122.321V115.454C113.078 114.347 115.657 112.688 117.905 110.545L123.227 113.979C123.825 114.37 124.609 114.232 125.083 113.656C128.177 109.922 130.549 105.405 131.931 100.427C132.138 99.6664 131.849 98.8598 131.251 98.468L125.929 95.034ZM102.311 101.303C96.7827 101.303 92.3066 96.2785 92.3066 90.125C92.3066 83.9715 96.8033 78.9473 102.311 78.9473C107.818 78.9473 112.315 83.9715 112.315 90.125C112.315 96.2785 107.839 101.303 102.311 101.303ZM46.2049 68C60.7883 68 72.6077 54.7941 72.6077 38.5C72.6077 22.2059 60.7883 9 46.2049 9C31.6215 9 19.8021 22.2059 19.8021 38.5C19.8021 54.7941 31.6215 68 46.2049 68ZM87.7067 120.201C87.2323 119.925 86.7579 119.602 86.3041 119.302L84.6746 120.363C83.4369 121.146 82.0343 121.584 80.6316 121.584C78.3833 121.584 76.2174 120.524 74.6704 118.68C70.8956 114.117 68.0078 108.562 66.3783 102.639C65.2438 98.5602 66.7702 94.2504 70.0705 92.107L71.7001 91.0469C71.6794 90.4477 71.6794 89.8484 71.7001 89.2492L70.0705 88.1891C66.7702 86.0687 65.2438 81.7359 66.3783 77.6566C66.5639 76.9883 66.832 76.3199 67.0383 75.6516C66.2545 75.5824 65.4913 75.375 64.6868 75.375H61.2421C56.6628 77.7258 51.5679 79.0625 46.2049 79.0625C40.8418 79.0625 35.7675 77.7258 31.1677 75.375H27.7229C12.4176 75.375 0 89.2492 0 106.35V115.938C0 122.045 4.43484 127 9.90104 127H82.5087C84.592 127 86.531 126.262 88.1193 125.041C87.8718 124.165 87.7067 123.266 87.7067 122.321V120.201Z" fill="#002D4E"/>
</svg>
